<svg xmlns="http://www.w3.org/2000/svg" viewBox="0 0 64.5 64.5"><defs><style>.cls-1{fill:#ecc67d;}.cls-2,.cls-4{fill:#fff;}.cls-3{fill:#f5e1c1;}.cls-4{stroke:#fff;stroke-miterlimit:10;}.cls-5{fill:#fafffb;}</style></defs><title>grainAsset 5</title><g id="Layer_2" data-name="Layer 2"><g id="Layer_1-2" data-name="Layer 1"><circle class="cls-1" cx="32.25" cy="32.25" r="32.25"/><path class="cls-2" d="M33.67,37.16c3.91,0,7.06-2.63,7.06-5.88V26.15l-7.06,5.7Z"/><path class="cls-2" d="M40.73,26.15c-3.9,0-7.06,2.55-7.06,5.7Z"/><path class="cls-2" d="M31.77,47.59c-3.9,0-7.06-2.63-7.06-5.88V36.58l7.06,5.7Z"/><path class="cls-2" d="M24.71,36.58c3.9,0,7.06,2.55,7.06,5.7Z"/><path class="cls-3" d="M31.3,36.85c-3.91,0-7.07-2.63-7.07-5.88V25.84l7.07,5.7Z"/><path class="cls-3" d="M24.23,25.84c3.91,0,7.07,2.55,7.07,5.7Z"/><path class="cls-2" d="M31.3,26.48c-3.91,0-7.07-2.63-7.07-5.89V15.47l7.07,5.69Z"/><path class="cls-2" d="M24.23,15.47c3.91,0,7.07,2.55,7.07,5.69Z"/><path class="cls-3" d="M33.67,26.67c3.91,0,7.06-2.63,7.06-5.89V15.66l-7.06,5.69Z"/><path class="cls-3" d="M40.73,15.66c-3.9,0-7.06,2.55-7.06,5.69Z"/><path class="cls-3" d="M33.67,47.59c3.91,0,7.06-2.63,7.06-5.88V36.58l-7.06,5.7Z"/><path class="cls-3" d="M40.73,36.58c-3.9,0-7.06,2.55-7.06,5.7Z"/><polygon class="cls-4" points="32.74 17.47 33.71 17.02 34.32 16.43 34.78 15.94 35.2 15.43 35.63 14.55 35.63 12.41 35.2 9.9 34.68 8.94 33.74 7.54 33.24 6.96 32.74 6.39 32.74 17.47"/><polygon class="cls-4" points="32.74 17.47 31.77 17.02 31.16 16.43 30.71 15.94 30.28 15.43 29.85 14.55 29.85 12.41 30.28 9.9 30.81 8.94 31.75 7.54 32.24 6.96 32.74 6.39 32.74 17.47"/><rect class="cls-5" x="31.58" y="48.12" width="2.34" height="10.08"/></g></g></svg>