<svg xmlns="http://www.w3.org/2000/svg" viewBox="0 0 64.5 64.5"><defs><style>.cls-1{fill:#749779;}.cls-2{fill:#fff;}.cls-3{fill:#b9c8bd;}</style></defs><title>lumberAsset 7</title><g id="Layer_2" data-name="Layer 2"><g id="Layer_1-2" data-name="Layer 1"><circle class="cls-1" cx="32.25" cy="32.25" r="32.25"/><polygon class="cls-2" points="28.18 54.22 33.27 54.22 33.27 47.23 33.69 46.63 34.26 46.13 34.6 45.64 35.09 45.15 35.63 44.23 36.12 43.66 36.69 42.64 37.18 41.69 37.18 41.31 37.18 40.25 36.69 40.63 36.2 41.12 35.59 41.65 35.17 42.07 34.6 42.68 34.22 42.75 33.39 43.09 33.01 43.09 32.68 42.83 32.68 38.92 32.13 35.61 31.64 33.11 31.15 30.98 30.23 38.84 29.74 44.2 29.17 48.87 28.91 51.45 28.52 52.55 28.18 54.22"/><path class="cls-3" d="M27.68,42.59c.08.3-1.06.94-2.16,1.25a7.14,7.14,0,0,1-3.31.12,7.65,7.65,0,0,1-4.67-3.08A9,9,0,0,1,16.29,37a8.41,8.41,0,0,1-.12-3.31,5.36,5.36,0,0,1,2.4-3.76c1.77-.94,4.12-.36,4.21.23s-2,.63-3.19,2.39c-1.54,2.31-.2,5.5-.11,5.7a7,7,0,0,0,2.5,3,7.46,7.46,0,0,0,2.51,1C26.39,42.67,27.6,42.29,27.68,42.59Z"/><path class="cls-3" d="M23.43,29.28c-.2.56-2.36.71-3.95-.15C16.2,27.36,14.92,21,17.2,16.37a11.46,11.46,0,0,1,6.68-5.62c6-1.79,13.14,2,13.54,5.49.17,1.46-.82,3.23-1.23,3.17s-.16-1.09-.61-2.28c-1.08-2.88-4.67-3.95-5.16-4.1a8.82,8.82,0,0,0-5.63.15,9.16,9.16,0,0,0-5.16,5.62,8.8,8.8,0,0,0,.91,7.6C21.83,28.19,23.62,28.75,23.43,29.28Z"/><path class="cls-3" d="M35.45,19.5c-.31-.31.75-2.59,2.85-3.65a6.34,6.34,0,0,1,4.56-.28,7.51,7.51,0,0,1,4,2.84,7.4,7.4,0,0,1,1.31,5.93,6.39,6.39,0,0,1-2.85,4c-2.08,1.22-4.65.89-4.72.52,0-.19.5-.34,1.48-.92a8.44,8.44,0,0,0,3.47-3.07,5.17,5.17,0,0,0-.28-5,5.12,5.12,0,0,0-3-2.11,5.82,5.82,0,0,0-2.9.05C36.9,18.38,35.72,19.77,35.45,19.5Z"/><path class="cls-3" d="M39.79,28.66c.14-.55,3.41-.82,5.92.84a7.36,7.36,0,0,1,2.59,3.11,8.17,8.17,0,0,1,.22,5.47,9.81,9.81,0,0,1-2.65,4.63A7.88,7.88,0,0,1,43,44.61c-1.85.68-3.75.64-3.8.38s1.35-.35,2.89-1.36a8.84,8.84,0,0,0,3.26-4.11c.23-.59,1.32-3.49,0-6a9.83,9.83,0,0,0-2.92-3C40.66,29.22,39.71,29,39.79,28.66Z"/></g></g></svg>