<svg xmlns="http://www.w3.org/2000/svg" viewBox="0 0 64.5 64.5"><defs><style>.cls-1{fill:#8d8e8b;}.cls-2{fill:#fff;}.cls-3{fill:#afb0ad;}</style></defs><title>oreAsset 8</title><g id="Layer_2" data-name="Layer 2"><g id="Layer_1-2" data-name="Layer 1"><circle class="cls-1" cx="32.25" cy="32.25" r="32.25"/><path class="cls-2" d="M26.29,43.62a18.88,18.88,0,0,0,6.1-.85C34.2,42.15,37.61,41,37.85,39c.1-.79-.9-2-2.9-4.33-2.42-2.85-3.44-3.52-3.82-3.76-1.29-.82-2.44-1.55-3.93-1.42-.9.07-1.91.69-3.93,1.93C22,32.16,21.12,32.8,20.82,33A16.44,16.44,0,0,0,18,35.47,6.58,6.58,0,0,0,16.49,38a2.57,2.57,0,0,0-.11,1.48c.08.27.29.8,1.71,1.71a14.58,14.58,0,0,0,2.62,1.31,15,15,0,0,0,3.07.91A14.21,14.21,0,0,0,26.29,43.62Z"/><path class="cls-2" d="M30.16,25.68c.07-.89,1.15-1.46,2.91-2.4,1.21-.64,1.19-.46,3.19-1.36s2.45-1.28,3.7-1.48a4.43,4.43,0,0,1,2.17,0c1.06.31,1.67,1,2.67,2.22a7.27,7.27,0,0,1,1.6,2.45,4,4,0,0,1,.11,3.07A3.53,3.53,0,0,1,45,29.72a5.83,5.83,0,0,1-3,.74A16.93,16.93,0,0,1,38.48,30,27.74,27.74,0,0,1,35,29.38,9.06,9.06,0,0,1,32,28C31.15,27.35,30.1,26.58,30.16,25.68Z"/><path class="cls-3" d="M14.67,26.42c.67-.93,1.59-1.32,3.42-2.05,2.48-1,4.23-1.67,5.87-.91.22.1,1.38.64,1.48,1.53,0,.23,0,.86-2.22,2.62-1.26,1-1.55,1-3.65,2.4s-2.48,1.77-3.36,1.71a2.82,2.82,0,0,1-2.05-1.2C13.26,29.17,14,27.34,14.67,26.42Z"/><path class="cls-3" d="M39.56,33.88c.5-.82,1.65-1,2.85-1.08a8.08,8.08,0,0,1,5.07,1c.44.26,3.75,2.21,3.3,4.27-.38,1.77-3.23,2.34-3.53,2.4a7,7,0,0,1-5.69-1.71C40.25,37.58,38.75,35.23,39.56,33.88Z"/></g></g></svg>