<svg xmlns="http://www.w3.org/2000/svg" viewBox="0 0 64.5 64.5"><defs><style>.cls-1{fill:#abb36e;}.cls-2,.cls-3{fill:none;stroke:#d5d9bb;stroke-miterlimit:10;}.cls-2{stroke-width:4px;}.cls-3{stroke-width:3px;}.cls-4{fill:#fff;}.cls-5{fill:#d5daba;}</style></defs><title>sheepAsset 2</title><g id="Layer_2" data-name="Layer 2"><g id="Layer_1-2" data-name="Layer 1"><circle class="cls-1" cx="32.25" cy="32.25" r="32.25"/><rect class="cls-2" x="21.46" y="19.2" width="22.48" height="32.58" rx="11.24"/><path class="cls-3" d="M11.25,37.47a8.55,8.55,0,0,0,5.16-.15c.49-.18,4.53-1.67,4.56-4.71,0-2.17-2-4.35-3.8-4.41C14.8,28.13,12.11,31.73,11.25,37.47Z"/><path class="cls-3" d="M53.66,37.77a8.59,8.59,0,0,1-5.17-.15C48,37.44,44,36,43.94,32.91c0-2.17,2-4.35,3.79-4.41C50.1,28.43,52.79,32,53.66,37.77Z"/><rect class="cls-4" x="26.01" y="14.03" width="12.8" height="18.97" rx="6.4"/><ellipse class="cls-4" cx="22.82" cy="24.58" rx="6.18" ry="6.37"/><ellipse class="cls-4" cx="41.11" cy="24.58" rx="6.18" ry="6.37"/><rect class="cls-5" x="31.48" y="45.82" width="1.86" height="5.18"/><line class="cls-2" x1="30.3" y1="45.82" x2="34.37" y2="45.82"/></g></g></svg>