<svg xmlns="http://www.w3.org/2000/svg" width="148" height="171" viewBox="0 0 147.73 170.59"><defs><style>.cls-1{fill:#fff;}.cls-2{fill:#cbab58;}.cls-3{fill:none;stroke:#fff;stroke-miterlimit:10;}.cls-4{fill:#442f08;}</style></defs><title>desertAsset 13</title><g id="Layer_2" data-name="Layer 2"><g id="Layer_1-2" data-name="Layer 1"><polygon class="cls-1" points="0 42.65 0 127.94 73.87 170.59 147.73 127.94 147.73 42.65 73.87 0 0 42.65"/><polygon class="cls-2" points="9.57 46.95 9.57 121.1 73.79 158.18 138.02 121.1 138.02 46.95 73.79 9.87 9.57 46.95"/><polygon class="cls-3" points="13.57 49.15 13.57 118.84 73.92 153.68 134.28 118.84 134.28 49.15 73.92 14.31 13.57 49.15"/><path class="cls-4" d="M109,91.25c-.94-1.58-2-6.85-2-7.14,0,0,1,3.56,1,3.64.38,1.23,1.17,2.43,1.3,2.3-1.28-2.56-.92-6.76-1.28-8a2.1,2.1,0,0,0-.36-.75.31.31,0,0,0,0-.08c-.12-.35-1-.76-1.52-1.64s-.53-1-.88-1.29a10.82,10.82,0,0,0-1.42-.79.85.85,0,0,0,.14-.36l.18-1.43c0-.33-.3-.58-.59-.59L102.39,75v-.11a2.53,2.53,0,0,1,.18-1.33.6.6,0,0,0-.51-.89,2.6,2.6,0,0,1-.63-.12,2.08,2.08,0,0,0-.53-1.25A1.81,1.81,0,0,0,100,71l-.18,0a1.43,1.43,0,0,0-.32-1.13.59.59,0,0,0-.57-.46.45.45,0,0,0-.16,0,1.5,1.5,0,0,0-1.08.15,1.41,1.41,0,0,0-.5.47.88.88,0,0,0,.07.8,1.2,1.2,0,0,0-.76.51,1.57,1.57,0,0,0-.24,1c0,.16.06.38.08.58s0,.11,0,.17l-.44,0-.09-.72a.62.62,0,0,0-.59-.6H95a.66.66,0,0,0-.36-.13,1.15,1.15,0,0,0-.74.2,8.26,8.26,0,0,0-.2-.86.58.58,0,0,0-.41-.42A6.66,6.66,0,0,0,92,70.53a.6.6,0,0,0-.19,0,7,7,0,0,0-1.18.17c-.37-.13-.83,0-.76.52l0,.29a.66.66,0,0,0-.07.25,10.41,10.41,0,0,0,.13,2.73.51.51,0,0,0,.1.26.41.41,0,0,0-.09.2,1.13,1.13,0,0,0-.92.38v0a.94.94,0,0,0-.27.44.58.58,0,0,0,.08.46,1.09,1.09,0,0,0,.11,1,.59.59,0,0,0,.17.18.93.93,0,0,0,.5.32c-.57.75-1.28,2-2.18,2.37s-2,0-2.69-1.7-.7-1.93-1-2.75a4.07,4.07,0,0,0-.7-1.52,1.78,1.78,0,0,1-.41-.71s.06-.64.06-.93-.12-.59-.35-.53-.47.76-.82.59a1.89,1.89,0,0,0-.76-.18,6,6,0,0,0-1.52.59c-.7.41-.76.58-1.41.58a2.74,2.74,0,0,0-1.64.76c-.29.29-1,1.06-.7,1.35a2,2,0,0,0,.65.41s-.35.64-.06.76.41-.29.76-.35a1.4,1.4,0,0,1,1.05.35,2.09,2.09,0,0,0,.94.47l.27,0c-1.75,1.75-4.43,2-6.91,1.78L72,78.89c-.57-1-.57-1.09-1-1.41s-1.09-.57-2.3-1.27a4.9,4.9,0,0,1-1.91-1.47,8.08,8.08,0,0,0-1.58-1.42c.43-2.49-1-5.69-1.73-7.77a1,1,0,0,0-.7-.62.86.86,0,0,0-.13-.14,1.74,1.74,0,0,0-.18-.33.3.3,0,0,0,.35-.26,1.94,1.94,0,0,1,.11-.43.35.35,0,0,0,.16-.21.85.85,0,0,0,0-.35v-.1A.32.32,0,0,0,63,62.8a1.12,1.12,0,0,0-.35-.25A1.6,1.6,0,0,0,60,62a1.25,1.25,0,0,0-.83.31.38.38,0,0,0,0,.44l.24.48,0,.07a2.5,2.5,0,0,0,.09,1,2.67,2.67,0,0,1-.09.26c0,.11.08.22.18.22s0,0,0,0a6.51,6.51,0,0,0,.33.74c.19.36.71.12,1.1.08h0v0a2,2,0,0,0-.75,1h0a.72.72,0,0,0-.27.32l-.09.22h0c-.24.55-.47,1.11-.7,1.67l-.3.66a5.82,5.82,0,0,1-2.45,1.18.33.33,0,0,0-.32-.21h0a.55.55,0,0,0-.9.41.6.6,0,0,0,.17.43,6.12,6.12,0,0,1-4,2.33,11.82,11.82,0,0,1-4.06.2,2.82,2.82,0,0,0-.5-.9,1.87,1.87,0,0,1-.45-.76s.06-.7.06-1-.12-.64-.38-.58-.51.83-.89.64a2.11,2.11,0,0,0-.83-.19,6.4,6.4,0,0,0-1.66.64c-.76.44-.82.63-1.52.63a2.92,2.92,0,0,0-1.79.83c-.32.32-1.08,1.15-.76,1.47a1.93,1.93,0,0,0,.7.44s-.38.7-.07.83.45-.32.83-.38a1.62,1.62,0,0,1,1.15.38l.13.1v.48a.18.18,0,0,0,.27.15c.89,1.4,1.83,3.78,3.61,3.91h0c.39,1,.13,1.09.64,1.79a11.39,11.39,0,0,0,2.93,2.86,7.87,7.87,0,0,0,2.8.64c.77,0,.9-.38,1.34,0a2.92,2.92,0,0,1,1,1.08,26.14,26.14,0,0,1,.51,2.81c.06.63.19,2.86.25,3.37s.13,2.3.19,3.38a11.2,11.2,0,0,1-.06,3.31c-.25,1.21-.38,1.09-.38,1.72v0c.06.08-.38.25-.46.35-.45.52-1,.42-1.23,1.07a.48.48,0,0,0,.09.51H53a21,21,0,0,1,2.4-.22c.19-.19.39-.38.57-.58a.38.38,0,0,0,0-.1.87.87,0,0,0,0-.69c.05-.22.09-.46.15-.71.13-.58.19-2.17.25-3.13a12.66,12.66,0,0,1,.32-2.23,23.07,23.07,0,0,0,.07-3c0-.64,0-3.83.06-4.27s-.26-.58.06-.45.19-.13.51,1.08.7,3.32.83,4.08-.06.7.26,1.34a10.3,10.3,0,0,1,.63,2.17,22.38,22.38,0,0,1,.38,2.42,6.91,6.91,0,0,1,.07,2c0,.3,0,.65,0,.92v0a3.54,3.54,0,0,1-.42.35c-.28.2-.55.47-.43.84s.52.47.92.37l.12.08a1,1,0,0,1,.21-.09,3.57,3.57,0,0,0,1.25-.62,3.69,3.69,0,0,1,0-.91c.07-.51-.25-1.6-.32-2.55s-.06-3-.06-3.82,0-1.53-.06-2.11a20.89,20.89,0,0,0-.51-2.16,25.58,25.58,0,0,1-.32-3.12v-.77s4-1,4.46-1A10,10,0,0,0,66.54,86c.58-.25,1.34-1.14,1.66-1.27s.32.7.45,1,.06.45,0,1a4.1,4.1,0,0,0,.19,2,19.25,19.25,0,0,1,1,2.3c.12.57-.19,2.55-.13,3.31a7.38,7.38,0,0,1-.45,2.49,27.2,27.2,0,0,1-.83,2.67c-.23.71-.58,1.59-.73,1.91a3.77,3.77,0,0,1-.48.91l-.19.06a.93.93,0,0,0-.78.62.42.42,0,0,0,.4.52,3.56,3.56,0,0,0,1.13-.09l.34,0a1.66,1.66,0,0,0,.21-.16.48.48,0,0,0,.38-.33l0,0a7.88,7.88,0,0,1,.32-1.46c.32-.7.77-2.11,1.09-2.62a20.36,20.36,0,0,1,1.14-2.16c.32-.32.51-.38.58-1a5.51,5.51,0,0,0-.07-1.72,16.62,16.62,0,0,1-.32-2.67c.07-.51.07-1,.26-.83a17.73,17.73,0,0,1,1.85,3.63c.19.83.06.76.25,1.91a8.63,8.63,0,0,1,.06,2.17c0,.76-.06,1.53-.06,2.35v.69s0,0,0,0l-.06.12a.11.11,0,0,1,0,0l0,0a6.16,6.16,0,0,1-1.11.93c-.27.18-.28.71.1.76a3.12,3.12,0,0,0,1.29-.05.45.45,0,0,0,.2-.12,2.59,2.59,0,0,0,.37-.11l.07-.08a.93.93,0,0,0,.1-.15h0l.09-.23c0-.31.05-.62.08-.93a.28.28,0,0,1,0-.09v0c0-.13,0-.25,0-.38l0,0h0c.13-.92.15-1.72.26-2.22a20.73,20.73,0,0,0,.44-2.61c.07-.83.45-1.28.45-2s.06-.76-1-2.48a7.92,7.92,0,0,1-1.27-3c0-.17-.05-1-.12-2l.07.09v-.43a.85.85,0,0,1,0-.23l-.15-.18c0-.58-.07-1.13-.09-1.5s0-.47-.05-.64a6.78,6.78,0,0,0,7.13-5c.27.69.54,1.58.86,2.38s.12,1,.58,1.64a15.23,15.23,0,0,0,1.91,2.08l0,0,.57.4v0l.23.12a7.41,7.41,0,0,0,2.57.59c.7,0,.82-.35,1.23,0a2.71,2.71,0,0,1,.88,1A24.78,24.78,0,0,1,90,89.5c.05.58.17,2.63.23,3.1s.12,2.11.18,3.1a11.14,11.14,0,0,1-.06,3c-.18.87-.3,1-.34,1.28l-.78.89a2.75,2.75,0,0,0-.48.59.43.43,0,0,0,.3.74,3.82,3.82,0,0,0,1.48-.21.34.34,0,0,0,.29-.28,1.07,1.07,0,0,0,.21-.13,1.37,1.37,0,0,0,.55-1.32l0-.14,0-.13c.11-.52.17-2,.23-2.87a12.08,12.08,0,0,1,.29-2,21.28,21.28,0,0,0,.06-2.81c0-.59,0-3.51.06-3.92s-.23-.53.06-.41.17-.12.47,1,.64,3,.76,3.75-.06.64.23,1.23a9.45,9.45,0,0,1,.59,2c.23.93.17,1.17.35,2.22a6.86,6.86,0,0,1,.06,1.81v.2a2.26,2.26,0,0,1-.37.39,4.34,4.34,0,0,1-.79.88,1.07,1.07,0,0,0-.15.36.56.56,0,0,0,.32.39,3.35,3.35,0,0,0,.89,0,4.2,4.2,0,0,0,.7-.3,1.86,1.86,0,0,0,.93-1.16h0a.35.35,0,0,0-.1-.36c-.06-.52-.22-1.2-.26-1.82-.06-.88-.06-2.75-.06-3.51a18.29,18.29,0,0,0-.06-1.93,16.2,16.2,0,0,0-.47-2A23.25,23.25,0,0,1,95,88.21v-.7s3.69-.88,4.1-.94a9.44,9.44,0,0,0,2-.47c.52-.23,1.22-1,1.52-1.17s.29.65.41.88,0,.41,0,.88a3.93,3.93,0,0,0,.17,1.81,16.24,16.24,0,0,1,.94,2.11c.12.53-.18,2.34-.12,3a6.75,6.75,0,0,1-.41,2.29c-.29,1.17-.53,1.75-.76,2.45s-.49,1.34-.64,1.68l-.65.68a.82.82,0,0,0-.42.44l-.1.1a.4.4,0,0,0,0,.6l.56,0h.27a2.72,2.72,0,0,0,1.32-.38.84.84,0,0,0,.18-1.21.08.08,0,0,1,0,0c.29-.65.7-1.93,1-2.4a20,20,0,0,1,1-2c.3-.29.47-.35.53-.88a4.87,4.87,0,0,0-.06-1.58,15.82,15.82,0,0,1-.29-2.46c.06-.47.06-.88.23-.76a15.5,15.5,0,0,1,1.7,3.34c.18.76.06.7.24,1.75a8.09,8.09,0,0,1,0,2c0,.71,0,1.41,0,2.17,0,.14,0,.27,0,.39a.31.31,0,0,0-.18.12l-.5.63a2.71,2.71,0,0,0-.41.55l-.08.1a.38.38,0,0,0,.24.59l.1,0q.73-.16,1.44-.39a2.23,2.23,0,0,0,.3-.2,1,1,0,0,0,.17-.21.12.12,0,0,0,0,0v0a1.63,1.63,0,0,0,0-1.13.4.4,0,0,0-.11-.19c.1-.76.12-1.42.21-1.85a18.28,18.28,0,0,0,.41-2.4c.06-.76.41-1.17.41-1.81S109.94,92.83,109,91.25ZM42.23,76.91a.13.13,0,0,0,0-.06l-.08-.23a.17.17,0,0,0,.09-.23h0a9,9,0,0,1,.95.26,2.13,2.13,0,0,1,1,1.08c.28.66.56,1.56.87,2.41C43.75,79.92,42.94,78.18,42.23,76.91Zm5.39-2.29-.13-.38A12.31,12.31,0,0,0,51.72,74a10.19,10.19,0,0,0,1.62-.52,11.72,11.72,0,0,1-5.48,1.89C47.79,75.11,47.72,74.9,47.62,74.62ZM58,74.83a.3.3,0,0,0-.1.14c-.35.11-.7.22-1,.35a6.17,6.17,0,0,0-2.68,1.34c-.63.76-1.46,2.35-2.55,2.8s-2.16.06-2.93-1.85c-.43-1.09-.62-1.62-.76-2a12,12,0,0,0,7.93-4,1.76,1.76,0,0,0,.31,0c.06.39.15.79.66.7.24,0,.49-.14.74-.18a5.17,5.17,0,0,1,.55-.07q-.29.9-.54,1.8A.9.9,0,0,0,58,74.83Zm15.57,8.34a4.78,4.78,0,0,1,.08-.91,3.5,3.5,0,0,0,.06-1.59c-.09-.25-.54-.54-1-1,2.58.15,5.27-.28,7-2.19h0a2.13,2.13,0,0,1,.6.48A6.19,6.19,0,0,1,73.54,83.17Z"/></g></g></svg>