<svg xmlns="http://www.w3.org/2000/svg" viewBox="0 0 147.73 170.59"><defs><style>.cls-1,.cls-5{fill:#fff;}.cls-2{fill:#ecc67d;}.cls-3{fill:none;}.cls-3,.cls-5{stroke:#fff;stroke-miterlimit:10;}.cls-4{fill:#f5e1c1;}.cls-6{fill:#fafffb;}</style></defs><title>fieldsdAsset 10</title><g id="Layer_2" data-name="Layer 2"><g id="Layer_1-2" data-name="Layer 1"><polygon class="cls-1" points="0 42.65 0 127.94 73.87 170.59 147.73 127.94 147.73 42.65 73.87 0 0 42.65"/><polygon class="cls-2" points="9.45 49.16 9.45 123.31 73.67 160.39 137.89 123.31 137.89 49.16 73.67 12.08 9.45 49.16"/><polygon class="cls-3" points="13.45 51.36 13.45 121.05 73.8 155.89 134.15 121.05 134.15 51.36 73.8 16.52 13.45 51.36"/><path class="cls-1" d="M30,90.93c3.9,0,7.06-2.63,7.06-5.89V79.92L30,85.61Z"/><path class="cls-1" d="M37.1,79.92c-3.9,0-7.06,2.54-7.06,5.69Z"/><path class="cls-1" d="M28.14,101.36c-3.91,0-7.06-2.63-7.06-5.89V90.35L28.14,96Z"/><path class="cls-1" d="M21.08,90.35c3.9,0,7.06,2.55,7.06,5.69Z"/><path class="cls-4" d="M27.66,90.62c-3.9,0-7.06-2.63-7.06-5.89V79.61l7.06,5.69Z"/><path class="cls-4" d="M20.6,79.61c3.9,0,7.06,2.54,7.06,5.69Z"/><path class="cls-1" d="M27.66,80.25c-3.9,0-7.06-2.64-7.06-5.89V69.23l7.06,5.7Z"/><path class="cls-1" d="M20.6,69.23c3.9,0,7.06,2.55,7.06,5.7Z"/><path class="cls-4" d="M30,80.44c3.9,0,7.06-2.64,7.06-5.89V69.42L30,75.12Z"/><path class="cls-4" d="M37.1,69.42C33.2,69.42,30,72,30,75.12Z"/><path class="cls-4" d="M30,101.36c3.9,0,7.06-2.63,7.06-5.89V90.35L30,96Z"/><path class="cls-4" d="M37.1,90.35C33.2,90.35,30,92.9,30,96Z"/><polygon class="cls-5" points="29.11 71.23 30.08 70.79 30.69 70.19 31.15 69.71 31.57 69.2 32 68.31 32 66.18 31.57 63.67 31.05 62.7 30.11 61.31 29.61 60.72 29.11 60.15 29.11 71.23"/><polygon class="cls-5" points="29.11 71.23 28.14 70.79 27.53 70.19 27.07 69.71 26.65 69.2 26.22 68.31 26.22 66.18 26.65 63.67 27.17 62.7 28.11 61.31 28.61 60.72 29.11 60.15 29.11 71.23"/><rect class="cls-6" x="27.95" y="101.89" width="2.34" height="10.08"/></g></g></svg>