<svg xmlns="http://www.w3.org/2000/svg" viewBox="0 0 147.73 170.59"><defs><style>.cls-1{fill:#fff;}.cls-2{fill:#749779;}.cls-3{fill:none;stroke:#fff;stroke-miterlimit:10;}.cls-4{fill:#b9c8bd;}</style></defs><title>forestAsset 11</title><g id="Layer_2" data-name="Layer 2"><g id="Layer_1-2" data-name="Layer 1"><polygon class="cls-1" points="0 42.65 0 127.94 73.87 170.59 147.73 127.94 147.73 42.65 73.87 0 0 42.65"/><polygon class="cls-2" points="10.2 47.58 10.2 121.73 74.42 158.81 138.64 121.73 138.64 47.58 74.42 10.49 10.2 47.58"/><polygon class="cls-3" points="13.95 49.86 13.95 119.55 74.3 154.39 134.65 119.55 134.65 49.86 74.3 15.02 13.95 49.86"/><polygon class="cls-1" points="32.55 106.49 37.64 106.49 37.64 99.5 38.06 98.89 38.63 98.4 38.97 97.91 39.46 97.41 39.99 96.5 40.49 95.93 41.06 94.91 41.55 93.95 41.55 93.58 41.55 92.51 41.06 92.89 40.56 93.39 39.95 93.92 39.54 94.33 38.97 94.94 38.59 95.02 37.75 95.36 37.37 95.36 37.05 95.09 37.05 91.18 36.5 87.88 36.01 85.37 35.51 83.25 34.6 91.11 34.11 96.46 33.54 101.13 33.27 103.72 32.89 104.82 32.55 106.49"/><path class="cls-4" d="M32.05,94.86c.08.29-1.07.93-2.17,1.25a6.93,6.93,0,0,1-3.3.11,7.59,7.59,0,0,1-4.67-3.07,9,9,0,0,1-1.26-3.88,8.36,8.36,0,0,1-.11-3.3,5.32,5.32,0,0,1,2.39-3.76c1.78-.95,4.12-.36,4.22.23s-2,.62-3.19,2.39c-1.55,2.3-.2,5.5-.12,5.7a7.09,7.09,0,0,0,2.51,3,7.18,7.18,0,0,0,2.51,1C30.76,94.93,32,94.56,32.05,94.86Z"/><path class="cls-4" d="M27.79,81.55c-.19.55-2.36.71-3.94-.15-3.28-1.78-4.56-8.11-2.28-12.76A11.37,11.37,0,0,1,28.25,63c6-1.8,13.13,2,13.53,5.48C42,70,41,71.73,40.55,71.68s-.16-1.09-.6-2.28c-1.08-2.89-4.67-4-5.17-4.1a8.65,8.65,0,0,0-5.62.15A9.13,9.13,0,0,0,24,71.07a8.74,8.74,0,0,0,.91,7.59C26.19,80.46,28,81,27.79,81.55Z"/><path class="cls-4" d="M39.82,71.76c-.31-.31.75-2.59,2.85-3.64a6.39,6.39,0,0,1,4.55-.29,7.54,7.54,0,0,1,4.05,2.85,7.43,7.43,0,0,1,1.31,5.92,6.38,6.38,0,0,1-2.85,4.05c-2.09,1.21-4.65.89-4.73.51,0-.18.51-.33,1.48-.91A8.49,8.49,0,0,0,50,77.17a5.15,5.15,0,0,0-.29-5,5.21,5.21,0,0,0-3-2.11,5.92,5.92,0,0,0-2.9.06C41.27,70.65,40.09,72,39.82,71.76Z"/><path class="cls-4" d="M44.16,80.93c.14-.55,3.4-.83,5.92.83a7.35,7.35,0,0,1,2.58,3.12,8.13,8.13,0,0,1,.23,5.47A9.85,9.85,0,0,1,50.23,95a8,8,0,0,1-2.88,1.9c-1.85.68-3.75.63-3.8.38s1.34-.35,2.89-1.37a8.88,8.88,0,0,0,3.26-4.1c.22-.59,1.32-3.5,0-6a10,10,0,0,0-2.92-3C45,81.48,44.08,81.24,44.16,80.93Z"/></g></g></svg>