<svg xmlns="http://www.w3.org/2000/svg" viewBox="0 0 147.73 170.59"><defs><style>.cls-1{fill:#fff;}.cls-2{fill:#8d8e8b;}.cls-3{fill:none;stroke:#fff;stroke-miterlimit:10;}.cls-4{fill:#afb0ad;}</style></defs><title>mountainsAsset 9</title><g id="Layer_2" data-name="Layer 2"><g id="Layer_1-2" data-name="Layer 1"><polygon class="cls-1" points="0 42.65 0 127.94 73.87 170.59 147.73 127.94 147.73 42.65 73.87 0 0 42.65"/><polygon class="cls-2" points="9.45 49.66 9.45 123.81 73.67 160.89 137.89 123.81 137.89 49.66 73.67 12.58 9.45 49.66"/><polygon class="cls-3" points="13.45 51.86 13.45 121.55 73.8 156.39 134.15 121.55 134.15 51.86 73.8 17.02 13.45 51.86"/><path class="cls-1" d="M29.66,98.39a18.88,18.88,0,0,0,6.09-.86c1.82-.61,5.23-1.77,5.47-3.82.09-.78-.9-2-2.9-4.32-2.43-2.85-3.45-3.53-3.82-3.76-1.3-.83-2.45-1.56-3.93-1.43-.9.08-1.91.7-3.93,1.94-1.29.79-2.15,1.43-2.45,1.65a16.13,16.13,0,0,0-2.79,2.45,6.56,6.56,0,0,0-1.54,2.56,2.57,2.57,0,0,0-.11,1.48c.07.28.29.8,1.71,1.71a13.92,13.92,0,0,0,2.62,1.31,13.5,13.5,0,0,0,3.07.91A13.12,13.12,0,0,0,29.66,98.39Z"/><path class="cls-1" d="M33.53,80.44c.06-.88,1.15-1.46,2.91-2.39,1.21-.64,1.19-.46,3.19-1.37s2.45-1.27,3.7-1.48a4.51,4.51,0,0,1,2.16,0c1.07.31,1.67,1,2.68,2.22a7.53,7.53,0,0,1,1.6,2.45A4,4,0,0,1,49.88,83a3.63,3.63,0,0,1-1.54,1.54,5.84,5.84,0,0,1-3,.74,18.32,18.32,0,0,1-3.47-.46,28.88,28.88,0,0,1-3.48-.62,9.14,9.14,0,0,1-3-1.37C34.51,82.12,33.47,81.35,33.53,80.44Z"/><path class="cls-4" d="M18,81.18c.66-.93,1.59-1.31,3.42-2.05,2.47-1,4.23-1.67,5.86-.91.23.11,1.39.65,1.48,1.54,0,.22,0,.86-2.22,2.62-1.25,1-1.54,1-3.64,2.39s-2.49,1.78-3.36,1.71a2.74,2.74,0,0,1-2-1.2C16.62,83.93,17.38,82.11,18,81.18Z"/><path class="cls-4" d="M42.93,88.65c.49-.82,1.65-1,2.85-1.09a8.19,8.19,0,0,1,5.07,1c.44.26,3.75,2.21,3.3,4.27-.38,1.76-3.23,2.33-3.53,2.39a6.9,6.9,0,0,1-5.7-1.71C43.62,92.34,42.11,90,42.93,88.65Z"/></g></g></svg>