<svg xmlns="http://www.w3.org/2000/svg" viewBox="0 0 147.73 170.59"><defs><style>.cls-1{fill:#fff;}.cls-2{fill:#abb36e;}.cls-3,.cls-4,.cls-6{fill:none;stroke-miterlimit:10;}.cls-3,.cls-4{stroke:#d5d9bb;}.cls-3{stroke-width:4px;}.cls-4{stroke-width:3px;}.cls-5{fill:#d5daba;}.cls-6{stroke:#fff;}</style></defs><title>pastureAsset 12</title><g id="Layer_2" data-name="Layer 2"><g id="Layer_1-2" data-name="Layer 1"><polygon class="cls-1" points="0 42.65 0 127.94 73.87 170.59 147.73 127.94 147.73 42.65 73.87 0 0 42.65"/><polygon class="cls-2" points="10.07 46.78 10.07 120.94 74.29 158.02 138.52 120.94 138.52 46.78 74.29 9.71 10.07 46.78"/><rect class="cls-3" x="29.2" y="70.17" width="22.48" height="32.58" rx="11.24"/><path class="cls-4" d="M19,88.44a8.4,8.4,0,0,0,5.16-.15c.49-.18,4.53-1.66,4.56-4.71,0-2.17-2-4.34-3.8-4.4C22.55,79.1,19.86,82.7,19,88.44Z"/><path class="cls-4" d="M61.4,88.74a8.4,8.4,0,0,1-5.16-.15c-.49-.18-4.53-1.66-4.56-4.71,0-2.17,2-4.35,3.8-4.4C57.84,79.4,60.53,83,61.4,88.74Z"/><rect class="cls-1" x="33.75" y="65.01" width="12.8" height="18.97" rx="6.4"/><ellipse class="cls-1" cx="30.56" cy="75.55" rx="6.18" ry="6.37"/><ellipse class="cls-1" cx="48.85" cy="75.55" rx="6.18" ry="6.37"/><rect class="cls-5" x="39.22" y="96.79" width="1.86" height="5.18"/><line class="cls-3" x1="38.05" y1="96.79" x2="42.11" y2="96.79"/><polygon class="cls-6" points="14.32 49.57 14.32 119.26 74.67 154.1 135.03 119.26 135.03 49.57 74.67 14.72 14.32 49.57"/></g></g></svg>